<svg width="16" height="16" viewBox="0 0 16 16" fill="none" xmlns="http://www.w3.org/2000/svg">
<path fill-rule="evenodd" clip-rule="evenodd" d="M14.5 3H5.5C5.22386 3 5 3.22386 5 3.5V5H10.5C11.3284 5 12 5.67157 12 6.5V10H14.5C14.7761 10 15 9.77614 15 9.5V3.5C15 3.22386 14.7761 3 14.5 3ZM12 11V12.5C12 13.3284 11.3284 14 10.5 14H1.5C0.671573 14 0 13.3284 0 12.5V6.5C0 5.67157 0.671573 5 1.5 5H4V3.5C4 2.67157 4.67157 2 5.5 2H14.5C15.3284 2 16 2.67157 16 3.5V9.5C16 10.3284 15.3284 11 14.5 11H12ZM1.5 6H10.5C10.7761 6 11 6.22386 11 6.5V7H1V6.5C1 6.22386 1.22386 6 1.5 6ZM11 12.5V8H1V12.5C1 12.7761 1.22386 13 1.5 13H10.5C10.7761 13 11 12.7761 11 12.5ZM6.5 9C6.22386 9 6 9.22386 6 9.5C6 9.77614 6.22386 10 6.5 10H9.5C9.77614 10 10 9.77614 10 9.5C10 9.22386 9.77614 9 9.5 9H6.5Z" fill="#778192"/>
</svg>
