<svg width="16" height="16" viewBox="0 0 16 16" fill="none" xmlns="http://www.w3.org/2000/svg">
<path fill-rule="evenodd" clip-rule="evenodd" d="M11 14L13.2226 15.4818C13.5549 15.7033 14 15.4651 14 15.0657V1.5C14 0.671573 13.3284 0 12.5 0H3.5C2.67157 0 2 0.671573 2 1.5V15.0657C2 15.4651 2.44507 15.7033 2.77735 15.4818L5 14L7.72265 15.8151C7.8906 15.9271 8.1094 15.9271 8.27735 15.8151L11 14ZM5.5 3C5.22386 3 5 3.22386 5 3.5C5 3.77614 5.22386 4 5.5 4H10.5C10.7761 4 11 3.77614 11 3.5C11 3.22386 10.7761 3 10.5 3H5.5ZM5 6.5C5 6.22386 5.22386 6 5.5 6H10.5C10.7761 6 11 6.22386 11 6.5C11 6.77614 10.7761 7 10.5 7H5.5C5.22386 7 5 6.77614 5 6.5ZM8.5 9C8.22386 9 8 9.22386 8 9.5C8 9.77614 8.22386 10 8.5 10H10.5C10.7761 10 11 9.77614 11 9.5C11 9.22386 10.7761 9 10.5 9H8.5Z" fill="white"/>
</svg>
