<svg width="16" height="16" viewBox="0 0 16 16" fill="none" xmlns="http://www.w3.org/2000/svg">
<path fill-rule="evenodd" clip-rule="evenodd" d="M13.5 2H2.5C2.22386 2 2 2.22386 2 2.5V13.5C2 13.7761 2.22386 14 2.5 14H13.5C13.7761 14 14 13.7761 14 13.5V2.5C14 2.22386 13.7761 2 13.5 2ZM15 2.5C15 1.67157 14.3284 1 13.5 1H2.5C1.67157 1 1 1.67157 1 2.5V13.5C1 14.3284 1.67157 15 2.5 15H13.5C14.3284 15 15 14.3284 15 13.5V2.5ZM11.5 4C11.7761 4 12 4.22386 12 4.5C12 4.77614 11.7761 5 11.5 5H4.5C4.22386 5 4 4.77614 4 4.5C4 4.22386 4.22386 4 4.5 4H11.5ZM12 7.5C12 7.22386 11.7761 7 11.5 7H4.5C4.22386 7 4 7.22386 4 7.5C4 7.77614 4.22386 8 4.5 8H11.5C11.7761 8 12 7.77614 12 7.5ZM11.5 10C11.7761 10 12 10.2239 12 10.5C12 10.7761 11.7761 11 11.5 11H4.5C4.22386 11 4 10.7761 4 10.5C4 10.2239 4.22386 10 4.5 10H11.5Z" fill="#778192"/>
</svg>
