<svg width="16" height="16" viewBox="0 0 16 16" fill="none" xmlns="http://www.w3.org/2000/svg">
<path fill-rule="evenodd" clip-rule="evenodd" d="M5.5 2H10.5C10.7761 2 11 2.22386 11 2.5V5.5C11 5.77614 10.7761 6 10.5 6H9.5H6.5H5.5C5.22386 6 5 5.77614 5 5.5V2.5C5 2.22386 5.22386 2 5.5 2ZM7 7H9V8.5C9 8.77614 9.22386 9 9.5 9H12V10H10.5C9.67157 10 9 10.6716 9 11.5V13.5C9 14.3284 9.67157 15 10.5 15H13.5C14.3284 15 15 14.3284 15 13.5V11.5C15 10.6716 14.3284 10 13.5 10H13V8.5C13 8.22386 12.7761 8 12.5 8H10V7H10.5C11.3284 7 12 6.32843 12 5.5V2.5C12 1.67157 11.3284 1 10.5 1H5.5C4.67157 1 4 1.67157 4 2.5V5.5C4 6.32843 4.67157 7 5.5 7H6V8H3.5C3.22386 8 3 8.22386 3 8.5V10H2.5C1.67157 10 1 10.6716 1 11.5V13.5C1 14.3284 1.67157 15 2.5 15H5.5C6.32843 15 7 14.3284 7 13.5V11.5C7 10.6716 6.32843 10 5.5 10H4V9H6.5C6.77614 9 7 8.77614 7 8.5V7ZM3.5 11H2.5C2.22386 11 2 11.2239 2 11.5V13.5C2 13.7761 2.22386 14 2.5 14H5.5C5.77614 14 6 13.7761 6 13.5V11.5C6 11.2239 5.77614 11 5.5 11H3.5ZM10.5 11H12.5H13.5C13.7761 11 14 11.2239 14 11.5V13.5C14 13.7761 13.7761 14 13.5 14H10.5C10.2239 14 10 13.7761 10 13.5V11.5C10 11.2239 10.2239 11 10.5 11Z" fill="#778192"/>
</svg>
