<svg width="16" height="16" viewBox="0 0 16 16" fill="none" xmlns="http://www.w3.org/2000/svg">
<path fill-rule="evenodd" clip-rule="evenodd" d="M13 6C13 8.14202 11.6896 10.4123 10.2191 12.2503C9.50159 13.1472 8.78159 13.8975 8.24042 14.4236C8.15548 14.5062 8.0751 14.5831 8 14.6541C7.9249 14.5831 7.84452 14.5062 7.75958 14.4236C7.21841 13.8975 6.49841 13.1472 5.78087 12.2503C4.31044 10.4123 3 8.14202 3 6C3 3.23858 5.23858 1 8 1C10.7614 1 13 3.23858 13 6ZM14 6C14 11 8 16 8 16C8 16 2 11 2 6C2 2.68629 4.68629 0 8 0C11.3137 0 14 2.68629 14 6ZM10 6C10 7.10457 9.10457 8 8 8C6.89543 8 6 7.10457 6 6C6 4.89543 6.89543 4 8 4C9.10457 4 10 4.89543 10 6ZM11 6C11 7.65685 9.65685 9 8 9C6.34315 9 5 7.65685 5 6C5 4.34315 6.34315 3 8 3C9.65685 3 11 4.34315 11 6Z" fill="#778192"/>
</svg>
