<svg xmlns="http://www.w3.org/2000/svg" width="24" height="24" viewBox="0 0 24 24" fill="none">
  <path fill-rule="evenodd" clip-rule="evenodd" d="M10.6659 21.6156C10.6042 21.1816 10.2654 20.8439 9.83978 20.7391C9.41446 20.6343 9.00104 20.4993 8.60193 20.3364C8.19794 20.1756 7.73002 20.2509 7.4272 20.5635L6.33505 21.6909C6.07497 21.9594 5.69211 22.0574 5.35372 21.9481C5.32227 21.938 5.29121 21.926 5.26067 21.9123C5.20936 21.8892 5.15951 21.8609 5.11176 21.8274C5.0001 21.749 4.88984 21.6687 4.78103 21.5866C4.40876 21.3059 4.31589 20.794 4.53414 20.382L4.97863 19.5428C4.98199 19.5365 4.98541 19.5302 4.98887 19.524L5.2701 18.993C5.47348 18.6091 5.40111 18.1416 5.12409 17.8074C4.84129 17.4729 4.58245 17.1175 4.35023 16.7438C4.11761 16.378 3.69582 16.1652 3.26829 16.2399L1.71834 16.5107C1.44289 16.5588 1.16785 16.4894 0.95909 16.3311C0.819663 16.2254 0.709787 16.08 0.649075 15.9034C0.604723 15.7744 0.562508 15.6444 0.522472 15.5134C0.386186 15.0677 0.61197 14.5991 1.0306 14.3941L1.88327 13.9766C1.88884 13.9739 1.89441 13.9712 1.9 13.9686L2.44463 13.7019C2.83404 13.5112 3.05026 13.0918 3.02375 12.6595C3.00798 12.4417 2.99996 12.2218 2.99996 12C2.99996 11.7782 3.00798 11.5583 3.02375 11.3405C3.05024 10.9082 2.83402 10.4889 2.44462 10.2982L1.88844 10.0258C1.88672 10.025 1.88501 10.0242 1.8833 10.0233L1.03063 9.60578C0.611991 9.40078 0.386206 8.93226 0.522495 8.4865C0.562533 8.35555 0.60475 8.22555 0.649104 8.09654C0.800715 7.65558 1.2589 7.40906 1.71824 7.48931L2.65353 7.65271C2.65675 7.65327 2.65996 7.65384 2.66316 7.65443L3.26824 7.76015C3.69559 7.83481 4.1172 7.62229 4.34989 7.25672C4.58234 6.88261 4.84147 6.5268 5.12461 6.19196C5.40118 5.85782 5.47332 5.3907 5.27007 5.00698L4.98691 4.4724C4.98412 4.46735 4.98138 4.46227 4.97867 4.45715L4.53417 3.618C4.31592 3.20596 4.4088 2.69409 4.78106 2.41333C4.88988 2.33126 5.00015 2.25099 5.11181 2.17258C5.23494 2.08612 5.37201 2.03475 5.51213 2.01606C5.80677 1.97672 6.11487 2.0819 6.33501 2.30915L7.42714 3.43652C7.64684 3.66332 7.95346 3.7652 8.25951 3.74261C8.37811 3.73385 8.49662 3.7064 8.60995 3.66028C9.00664 3.49887 9.41745 3.36494 9.84 3.26086C10.2656 3.15602 10.6042 2.81839 10.6659 2.38444L10.8867 0.831341C10.9524 0.369132 11.3292 0.00947426 11.796 0.00169671C11.8639 0.000566376 11.9318 0 11.9999 0C12 0 12 0 12 0C12.0681 0 12.1361 0.00056735 12.2039 0.00169758C12.6707 0.00947498 13.0476 0.369133 13.1133 0.831344L13.3341 2.38444C13.3957 2.81838 13.7346 3.15607 14.1602 3.26091C14.5855 3.3657 14.999 3.50072 15.3981 3.66358C15.8021 3.82438 16.27 3.74909 16.5728 3.43651L17.6649 2.30911C17.9384 2.02685 18.3475 1.93292 18.698 2.07034C18.7639 2.09616 18.8277 2.13016 18.8882 2.17262C18.9999 2.25103 19.1101 2.33129 19.2189 2.41336C19.5912 2.69412 19.6841 3.20598 19.4658 3.61802L19.0213 4.45718C19.018 4.46348 19.0146 4.46974 19.0112 4.47593L18.7299 5.00695C18.5265 5.39088 18.5988 5.85829 18.8758 6.19247C19.1586 6.527 19.4175 6.88246 19.6497 7.25618C19.8824 7.62204 20.3042 7.83477 20.7317 7.76007L22.2816 7.48929C22.5257 7.44666 22.7694 7.49625 22.9669 7.61822C23.0018 7.63975 23.0352 7.66353 23.067 7.68945C23.194 7.79316 23.294 7.93121 23.3509 8.09663C23.3953 8.22563 23.4375 8.35563 23.4775 8.48658C23.6138 8.93234 23.388 9.40086 22.9694 9.60585L22.1167 10.0234C22.1112 10.0261 22.1056 10.0288 22.1001 10.0314L21.5553 10.2981C21.166 10.4888 20.9497 10.9082 20.9762 11.3404C20.992 11.5582 21 11.7782 21 12C21 12.2218 20.992 12.4417 20.9762 12.6595C20.9497 13.0917 21.1659 13.5111 21.5554 13.7018L22.1113 13.9741C22.1131 13.9749 22.1149 13.9758 22.1167 13.9767L22.9693 14.3942L22.9693 14.3942C23.388 14.5992 23.6138 15.0677 23.4775 15.5135C23.4374 15.6445 23.3952 15.7744 23.3509 15.9035C23.1993 16.3444 22.7411 16.5909 22.2817 16.5107L21.3464 16.3473C21.3433 16.3467 21.3402 16.3462 21.3371 16.3456L20.7317 16.2399C20.3044 16.1652 19.8828 16.3777 19.6501 16.7433C19.4176 17.1175 19.1584 17.4733 18.8752 17.8082C18.5988 18.1423 18.5267 18.6094 18.7299 18.993L19.013 19.5274C19.0158 19.5325 19.0186 19.5377 19.0213 19.5428L19.4658 20.382C19.6841 20.794 19.5912 21.3059 19.2189 21.5867C19.1101 21.6687 18.9998 21.749 18.8882 21.8274C18.7926 21.8945 18.6887 21.9405 18.5814 21.9664C18.517 21.982 18.4514 21.9904 18.3857 21.9918C18.1234 21.9974 17.8598 21.8919 17.665 21.6909L16.5728 20.5635C16.3632 20.3471 16.0745 20.2444 15.7827 20.2551C15.7223 20.2573 15.6617 20.2643 15.6017 20.2762C15.53 20.2905 15.459 20.3116 15.39 20.3397C14.9933 20.5011 14.5825 20.6351 14.16 20.7391C13.7344 20.844 13.3957 21.1816 13.3341 21.6156L13.1133 23.1687C13.0476 23.6309 12.6708 23.9905 12.204 23.9983C12.1361 23.9994 12.0681 24 12 24C11.932 24 11.864 23.9994 11.7962 23.9983C11.7962 23.9983 11.7961 23.9983 11.796 23.9983M11.796 23.9983C11.3292 23.9905 10.9524 23.6309 10.8867 23.1687L10.6659 21.6156M10.5892 18.8578C11.0449 18.951 11.5167 19 12 19C12.2416 19 12.4803 18.9878 12.7157 18.9639C12.9579 18.9393 13.1966 18.9023 13.4309 18.8536C16.6106 18.1931 19 15.3756 19 12C19 8.40583 16.2912 5.44434 12.8037 5.04565C12.54 5.0155 12.2718 5 12 5C8.13403 5 5.00002 8.13401 5.00002 12C5.00002 15.3827 7.39946 18.205 10.5892 18.8578Z" fill="#778192"/>
</svg>