<svg width="16" height="16" viewBox="0 0 16 16" fill="none" xmlns="http://www.w3.org/2000/svg">
<path fill-rule="evenodd" clip-rule="evenodd" d="M6.12209 13.4733L4.5 12.5L3 13.4L2.75725 13.5457C2.42399 13.7456 2 13.5056 2 13.1169V12.8338V2.5C2 1.67157 2.67157 1 3.5 1H10.5C11.3284 1 12 1.67157 12 2.5V6.75777C13.206 7.56504 14 8.93979 14 10.5C14 12.9853 11.9853 15 9.5 15C8.15439 15 6.94673 14.4094 6.12209 13.4733ZM11 2.5V6.25606C10.5308 6.09023 10.026 6 9.5 6C8.42835 6 7.4442 6.3746 6.67133 7H5.5C5.22386 7 5 7.22386 5 7.5C5 7.77614 5.22386 8 5.5 8H5.75777C5.27914 8.71505 5 9.57493 5 10.5C5 10.929 5.06004 11.3441 5.17219 11.7371L5.0145 11.6425L4.75725 11.4882C4.59891 11.3932 4.40109 11.3932 4.24275 11.4882L3.9855 11.6425L3 12.2338V2.5C3 2.22386 3.22386 2 3.5 2H10.5C10.7761 2 11 2.22386 11 2.5ZM5 4.5C5 4.22386 5.22386 4 5.5 4H8.5C8.77614 4 9 4.22386 9 4.5C9 4.77614 8.77614 5 8.5 5H5.5C5.22386 5 5 4.77614 5 4.5ZM13 10.5C13 12.433 11.433 14 9.5 14C7.567 14 6 12.433 6 10.5C6 8.567 7.567 7 9.5 7C11.433 7 13 8.567 13 10.5ZM11.8536 9.85355C12.0488 9.65829 12.0488 9.34171 11.8536 9.14645C11.6583 8.95118 11.3417 8.95118 11.1464 9.14645L9 11.2929L7.85355 10.1464C7.65829 9.95118 7.34171 9.95118 7.14645 10.1464C6.95118 10.3417 6.95118 10.6583 7.14645 10.8536L8.64645 12.3536C8.84171 12.5488 9.15829 12.5488 9.35355 12.3536L11.8536 9.85355Z" fill="#778192"/>
</svg>
